<svg width="1440" height="430" viewBox="0 0 1440 430" fill="none" xmlns="http://www.w3.org/2000/svg">
<g style="mix-blend-mode:overlay">
<path d="M1095.74 258.021L1142.04 284.707V338.063L1095.74 364.748L1049.44 338.063V284.707L1095.74 258.021ZM1140.41 285.617L1095.74 259.842L1051.07 285.617V337.152L1095.74 362.928L1140.41 337.152V285.617Z" fill="#666666"/>
<path d="M1004.88 258.021L1051.18 284.707V338.063L1004.88 364.748L958.578 338.063V284.707L1004.88 258.021ZM1049.55 285.617L1004.88 259.842L960.221 285.617V337.152L1004.88 362.928L1049.55 337.152V285.617Z" fill="#666666"/>
<path d="M913.967 258.021L960.266 284.707V338.063L913.967 364.748L867.667 338.063V284.707L913.967 258.021ZM958.638 285.617L913.967 259.842L869.31 285.617V337.152L913.967 362.928L958.638 337.152V285.617Z" fill="#666666"/>
<path d="M1323.06 179.352L1369.36 206.038V259.394L1323.06 286.08L1276.76 259.394V206.038L1323.06 179.352ZM1367.73 206.948L1323.06 181.173L1278.4 206.948V258.543L1323.06 284.304L1367.73 258.543V206.948Z" fill="#666666"/>
<path d="M1232.15 179.352L1278.45 206.038V259.394L1232.15 286.08L1185.85 259.394V206.038L1232.15 179.352ZM1276.82 206.948L1232.15 181.173L1187.49 206.948V258.543L1232.15 284.304L1276.82 258.543V206.948Z" fill="#666666"/>
<path d="M1141.25 179.352L1187.55 206.038V259.394L1141.25 286.08L1094.95 259.394V206.038L1141.25 179.352ZM1185.91 206.948L1141.25 181.173L1096.58 206.948V258.543L1141.25 284.304L1185.91 258.543V206.948Z" fill="#666666"/>
<path d="M1050.34 179.352L1096.64 206.038V259.394L1050.34 286.08L1004.04 259.394V206.038L1050.34 179.352ZM1095 206.948L1050.34 181.173L1005.67 206.948V258.543L1050.34 284.304L1095 258.543V206.948Z" fill="#666666"/>
<path d="M959.43 179.352L1005.73 206.038V259.394L959.43 286.08L913.13 259.394V206.038L959.43 179.352ZM1004.09 206.948L959.43 181.173L914.758 206.948V258.543L959.43 284.304L1004.09 258.543V206.948Z" fill="#666666"/>
<path d="M1277.61 100.684L1323.91 127.354V180.71L1277.61 207.396L1231.31 180.71V127.354L1277.61 100.684ZM1322.27 128.265L1277.61 102.504L1232.94 128.265V179.8L1277.61 205.575L1322.27 179.8V128.265Z" fill="#666666"/>
<path d="M1186.7 100.684L1233 127.354V180.71L1186.7 207.396L1140.4 180.71V127.354L1186.7 100.684ZM1231.37 128.265L1186.7 102.504L1142.04 128.265V179.8L1186.71 205.575L1231.38 179.8L1231.37 128.265Z" fill="#666666"/>
<path d="M1004.88 100.684L1051.18 127.354V180.71L1004.88 207.396L958.578 180.71V127.354L1004.88 100.684ZM1049.55 128.265L1004.88 102.504L960.221 128.265V179.8L1004.88 205.575L1049.55 179.8V128.265Z" fill="#666666"/>
<path d="M1232.15 22L1278.45 48.6856V102.042L1232.15 128.698L1185.85 102.012V48.6856L1232.15 22ZM1276.82 49.596L1232.15 23.8208L1187.49 49.596V101.131L1232.15 126.907L1276.82 101.131V49.596Z" fill="#666666"/>
</g>
<path d="M1346.1 357.54V285.766L1282.99 249.35V176.457L1219.85 140.085V67.2519L1155.63 30.1936L1091.41 67.237V140.07L1028.3 176.457V249.29L965.18 285.706V357.793H-32.834V360.032H965.359L1029.4 396.971L1092.52 360.554L1155.63 396.971L1218.76 360.554L1281.88 396.971L1346.1 359.928V359.719H1440V357.599L1346.1 357.54ZM1093.61 68.5205L1155.63 32.701L1217.66 68.5205V140.085L1198.63 151.085L1155.63 175.875L1109.19 149.07L1093.62 140.115L1093.61 68.5205ZM1091.43 358.54L1029.4 394.359L967.375 358.54V287.035L1029.4 251.215L1064.54 271.498L1091.43 287.005V358.54ZM1061.56 267.185L1030.55 249.275V177.636L1092.58 141.816L1127.88 162.189L1154.6 177.591V249.23L1127.88 264.648L1092.58 285.02L1061.56 267.185ZM1217.66 358.54L1155.63 394.359L1093.61 358.54V287.035L1109.17 278.08L1155.63 251.215L1198.63 276.02L1217.66 287.005V358.54ZM1187.79 267.185L1156.78 249.275V177.636L1187.79 159.726L1218.81 141.816L1280.84 177.636V249.275L1249.82 267.185L1218.81 285.095L1187.79 267.185ZM1343.91 358.54L1281.88 394.359L1219.85 358.54V287.035L1246.74 271.528L1281.9 251.245L1343.92 287.065L1343.91 358.54Z" fill="white"/>
<path d="M1130.95 119.295C1130.56 120.787 1130.2 122.175 1129.87 123.653C1131.36 123.25 1132.75 122.907 1134.23 122.593C1134.62 121.101 1135.04 119.772 1135.49 118.414C1133.96 118.683 1132.44 118.966 1130.95 119.295ZM1167.98 101.549L1164.27 97.8329C1162.95 98.0717 1161.65 98.3254 1160.38 98.609L1166.36 104.579C1165.44 106.01 1164.39 107.345 1163.21 108.564L1154.81 100.161C1153.65 100.549 1152.51 100.967 1151.41 101.43L1160.73 110.743C1160.04 111.258 1159.32 111.732 1158.58 112.161C1157.8 112.579 1157.01 112.982 1156.2 113.34L1146.79 103.937C1145.99 104.526 1145.23 105.174 1144.52 105.877L1144.3 106.101L1152.86 114.653C1151.03 115.245 1149.18 115.743 1147.3 116.146L1141.19 110.041C1140.59 111.008 1140.04 112.004 1139.53 113.026L1143.46 116.937C1141.49 117.325 1139.49 117.668 1137.49 118.011C1137.02 119.354 1136.59 120.728 1136.2 122.145C1145.09 120.399 1154.38 119.504 1161.86 115.34C1168.57 111.609 1172.32 104.325 1174.75 95.9375C1173.26 96.2658 1171.63 96.5494 1170.06 96.8329C1169.46 98.4431 1168.77 100.018 1167.98 101.549ZM1119.31 123.026L1122.6 126.309C1123.07 126.071 1123.58 125.877 1124.09 125.653L1127.08 128.638C1127.35 127.339 1127.6 126.056 1127.88 124.787L1127.5 124.384L1128 124.235C1128.33 122.713 1128.69 121.22 1129.08 119.757C1125.71 120.487 1122.44 121.583 1119.31 123.026ZM1170.69 94.9076C1172.18 94.639 1173.68 94.3405 1175.24 94.0271C1175.63 92.5943 1175.99 91.1466 1176.32 89.684C1174.83 90.072 1173.42 90.4153 1171.94 90.7436C1171.55 92.1664 1171.14 93.5545 1170.69 94.9076ZM1172.44 88.8482C1173.93 88.5198 1175.33 88.1467 1176.75 87.7288C1176.77 87.608 1176.79 87.4884 1176.83 87.3706L1177.08 87.6243C1178.26 87.2811 1179.43 86.893 1180.56 86.4453L1177.57 83.4603C1177.69 82.7588 1177.83 82.0723 1177.96 81.3858L1174.68 78.1023C1174.03 81.744 1173.3 85.4155 1172.44 88.8482Z" fill="white"/>
<path d="M1139.95 101.295C1133.04 108.206 1130.41 120.131 1128.18 131.891L1131.47 135.175C1133.69 123.414 1136.32 111.504 1143.24 104.579C1144.57 103.263 1146.08 102.133 1147.72 101.221C1159.19 94.848 1174.9 96.1166 1186.94 90.2959L1183.65 87.0125C1171.61 92.8331 1155.9 91.4899 1144.43 97.9374C1142.79 98.8448 1141.28 99.9749 1139.95 101.295Z" fill="white"/>
<path d="M1233.48 200.516C1229.13 200.519 1224.94 202.182 1221.78 205.163C1218.61 208.145 1216.71 212.221 1216.45 216.56H1250.5C1250.25 212.22 1248.34 208.142 1245.18 205.159C1242.01 202.177 1237.83 200.516 1233.48 200.516Z" fill="white"/>
<path d="M1216.43 218.47C1216.62 222.863 1218.49 227.015 1221.67 230.059C1224.85 233.102 1229.08 234.801 1233.48 234.801C1237.88 234.801 1242.11 233.102 1245.28 230.059C1248.46 227.015 1250.33 222.863 1250.52 218.47H1216.43Z" fill="white"/>
<path d="M1202.02 188.113C1199.12 188.121 1196.34 189.276 1194.28 191.325C1192.23 193.375 1191.07 196.153 1191.06 199.053V232.171C1191.16 235.005 1192.36 237.687 1194.41 239.655C1196.45 241.622 1199.18 242.722 1202.01 242.722C1204.85 242.722 1207.58 241.622 1209.62 239.655C1211.66 237.687 1212.86 235.005 1212.97 232.171V199.053C1212.96 196.155 1211.8 193.379 1209.75 191.33C1207.7 189.281 1204.92 188.125 1202.02 188.113ZM1210.62 216.202H1193.4V199.426C1193.5 197.206 1194.44 195.108 1196.05 193.57C1197.65 192.032 1199.79 191.173 1202.01 191.173C1204.24 191.173 1206.38 192.032 1207.98 193.57C1209.58 195.108 1210.53 197.206 1210.62 199.426V216.202Z" fill="white"/>
<path d="M1029.1 291.482C1029.1 291.482 1010.36 322.825 1010.36 333.272C1010.5 338.15 1012.53 342.782 1016.03 346.184C1019.54 349.586 1024.23 351.489 1029.11 351.489C1033.99 351.489 1038.68 349.586 1042.19 346.184C1045.69 342.782 1047.72 338.15 1047.86 333.272C1047.86 322.854 1029.1 291.482 1029.1 291.482ZM1029.1 348.003C1025.18 347.995 1021.42 346.434 1018.65 343.662C1015.87 340.89 1014.31 337.132 1014.3 333.212C1014.3 327.466 1022.37 311.288 1029.1 299.333C1035.85 311.273 1043.92 327.466 1043.92 333.212C1043.91 337.135 1042.35 340.895 1039.57 343.667C1036.79 346.44 1033.03 347.999 1029.1 348.003Z" fill="white"/>
<path d="M1027.16 342.122C1025.35 341.139 1023.84 339.685 1022.79 337.914C1021.74 336.144 1021.18 334.122 1021.19 332.063C1021.26 331.84 1021.27 331.603 1021.23 331.373C1021.19 331.142 1021.1 330.924 1020.96 330.735C1020.82 330.547 1020.64 330.394 1020.43 330.288C1020.22 330.183 1019.99 330.128 1019.76 330.128C1019.53 330.128 1019.3 330.183 1019.09 330.288C1018.88 330.394 1018.7 330.547 1018.56 330.735C1018.42 330.924 1018.33 331.142 1018.29 331.373C1018.25 331.603 1018.26 331.84 1018.33 332.063C1018.33 334.635 1019.03 337.16 1020.34 339.372C1021.65 341.584 1023.54 343.4 1025.8 344.63C1026.01 344.744 1026.25 344.805 1026.49 344.809C1026.75 344.803 1027 344.73 1027.22 344.597C1027.45 344.463 1027.63 344.274 1027.76 344.048C1027.92 343.71 1027.94 343.325 1027.83 342.969C1027.72 342.613 1027.48 342.311 1027.16 342.122Z" fill="white"/>
<path d="M1120.86 192.307C1120.86 192.307 1118.76 194.337 1112.28 194.337C1110.61 194.326 1108.94 194.212 1107.29 193.993C1096.37 192.591 1091.73 187.755 1091.73 187.755C1091.73 187.755 1087.07 192.591 1076.16 193.993C1074.51 194.211 1072.84 194.326 1071.17 194.337C1064.68 194.337 1062.57 192.307 1062.57 192.307C1062.57 192.307 1056.27 229.619 1091.73 250.23C1127.11 229.694 1120.86 192.307 1120.86 192.307ZM1091.73 246.275C1085.62 242.66 1080.31 237.854 1076.1 232.144C1071.89 226.434 1068.88 219.936 1067.23 213.038C1065.97 207.852 1065.41 202.521 1065.57 197.187C1067.42 197.573 1069.29 197.759 1071.17 197.74C1072.99 197.727 1074.8 197.602 1076.6 197.366C1081.98 196.794 1087.16 194.98 1091.73 192.068C1096.29 194.973 1101.46 196.781 1106.84 197.352C1108.64 197.587 1110.46 197.711 1112.28 197.725C1114.15 197.744 1116.03 197.559 1117.86 197.172C1118.15 206.963 1116.2 231.067 1091.73 246.275Z" fill="white"/>
<path d="M1095.83 205.232H1087.74V213.351H1079.61V221.44H1087.74V229.559H1095.83V221.44H1103.96V213.351H1095.83V205.232Z" fill="white"/>
<path d="M1188.42 319.437C1188.14 314.749 1186.04 310.356 1182.57 307.188C1179.1 304.02 1174.53 302.327 1169.84 302.467H1168.93C1162.64 302.736 1157.89 306.825 1155.48 309.392C1153.14 306.78 1148.46 302.631 1142.18 302.273H1140.95C1136.32 302.156 1131.81 303.825 1128.37 306.933C1124.93 310.041 1122.81 314.352 1122.46 318.974C1121.85 327.929 1127.96 335.735 1132.62 340.824C1139 347.49 1146.23 353.295 1154.11 358.092L1155.11 358.689L1156.14 358.107C1164.09 353.415 1171.4 347.711 1177.89 341.137C1182.67 336.152 1188.89 328.406 1188.42 319.437ZM1174.97 338.361C1169.06 344.39 1162.43 349.664 1155.22 354.062C1148.07 349.587 1141.5 344.243 1135.67 338.152C1134.5 336.884 1133.23 335.421 1132.04 333.824H1144.76C1144.86 333.828 1144.96 333.808 1145.06 333.767C1145.15 333.725 1145.23 333.663 1145.3 333.585L1146 332.66L1146.87 336.645C1146.91 336.779 1146.99 336.895 1147.1 336.978C1147.22 337.061 1147.35 337.106 1147.49 337.106C1147.63 337.106 1147.77 337.061 1147.88 336.978C1148 336.895 1148.08 336.779 1148.12 336.645L1148.94 332.958L1149.97 338.406C1150.01 338.545 1150.09 338.669 1150.2 338.756C1150.32 338.843 1150.46 338.888 1150.6 338.884C1150.74 338.889 1150.88 338.845 1150.99 338.761C1151.11 338.678 1151.19 338.557 1151.23 338.421L1154.38 323.153L1156.98 345.674C1157.01 345.822 1157.09 345.954 1157.2 346.047C1157.32 346.14 1157.47 346.188 1157.62 346.182C1157.77 346.188 1157.91 346.142 1158.02 346.052C1158.14 345.961 1158.22 345.833 1158.25 345.689L1160.49 332.257L1161.41 338.003C1161.44 338.141 1161.52 338.266 1161.62 338.356C1161.73 338.445 1161.87 338.495 1162.01 338.496C1162.15 338.507 1162.29 338.472 1162.4 338.396C1162.52 338.32 1162.61 338.208 1162.65 338.078L1164.22 333.123L1164.83 335.929C1164.87 336.06 1164.95 336.176 1165.05 336.26C1165.16 336.343 1165.29 336.389 1165.43 336.391C1165.56 336.4 1165.69 336.369 1165.8 336.302C1165.92 336.236 1166 336.137 1166.06 336.018L1166.88 333.944L1167.61 334.958C1167.67 335.039 1167.75 335.104 1167.84 335.148C1167.93 335.192 1168.03 335.214 1168.13 335.212C1168.23 335.216 1168.32 335.199 1168.41 335.163C1168.5 335.127 1168.58 335.073 1168.64 335.003L1169.73 333.764H1178.95C1177.71 335.367 1176.39 336.902 1174.99 338.361H1174.97ZM1179.77 332.615H1169.4C1169.31 332.612 1169.22 332.631 1169.13 332.67C1169.05 332.709 1168.97 332.767 1168.91 332.839L1168.18 333.66L1167.24 332.332C1167.17 332.241 1167.08 332.17 1166.98 332.126C1166.88 332.081 1166.77 332.065 1166.66 332.078C1166.54 332.082 1166.42 332.119 1166.33 332.185C1166.23 332.251 1166.15 332.343 1166.1 332.451L1165.63 333.66L1164.95 330.556C1164.92 330.423 1164.84 330.307 1164.72 330.226C1164.61 330.144 1164.48 330.103 1164.34 330.108C1164.21 330.102 1164.08 330.138 1163.97 330.211C1163.86 330.283 1163.78 330.388 1163.73 330.511L1162.24 335.167L1161.13 328.212C1161.09 328.073 1161.01 327.949 1160.9 327.861C1160.78 327.773 1160.64 327.726 1160.5 327.726C1160.35 327.726 1160.21 327.773 1160.1 327.861C1159.98 327.949 1159.9 328.073 1159.86 328.212L1157.72 341.063L1155.17 319.019C1155.15 318.874 1155.07 318.742 1154.96 318.648C1154.85 318.555 1154.7 318.506 1154.56 318.511C1154.41 318.506 1154.27 318.548 1154.16 318.632C1154.04 318.716 1153.96 318.836 1153.92 318.974L1150.62 334.958L1149.61 329.66C1149.57 329.526 1149.49 329.41 1149.38 329.327C1149.26 329.244 1149.13 329.199 1148.99 329.199C1148.85 329.199 1148.71 329.244 1148.6 329.327C1148.49 329.41 1148.4 329.526 1148.36 329.66L1147.48 333.57L1146.93 331.048C1146.9 330.928 1146.83 330.819 1146.74 330.739C1146.64 330.658 1146.53 330.61 1146.4 330.6C1146.29 330.585 1146.17 330.598 1146.06 330.64C1145.95 330.682 1145.85 330.75 1145.78 330.839L1144.42 332.645H1131.18C1128.44 328.75 1126.21 324.123 1126.54 319.213C1126.79 315.602 1128.45 312.232 1131.14 309.819C1133.84 307.406 1137.38 306.139 1141 306.288C1141.33 306.288 1141.65 306.288 1142 306.288C1148.97 306.676 1153.78 313.616 1153.83 313.676L1155.47 316.123L1157.16 313.705C1157.16 313.631 1162.07 306.765 1169.11 306.482C1170.97 306.331 1172.85 306.552 1174.63 307.131C1176.41 307.711 1178.06 308.637 1179.48 309.857C1180.9 311.077 1182.07 312.566 1182.91 314.239C1183.75 315.911 1184.25 317.734 1184.38 319.601C1184.62 324.362 1182.47 328.839 1179.78 332.615H1179.77Z" fill="white"/>
<path d="M1314.57 329.75C1314.58 328.385 1314.2 327.047 1313.47 325.891C1312.75 324.734 1311.71 323.805 1310.48 323.212C1309.25 322.619 1307.88 322.385 1306.52 322.538C1305.16 322.69 1303.88 323.223 1302.81 324.075C1301.74 324.926 1300.94 326.062 1300.49 327.351C1300.04 328.639 1299.97 330.029 1300.27 331.358C1300.58 332.688 1301.26 333.904 1302.23 334.866C1303.19 335.827 1304.41 336.496 1305.75 336.794V348.958C1305.81 351.095 1305.45 353.224 1304.67 355.217C1303.9 357.211 1302.74 359.029 1301.25 360.564C1299.76 362.099 1297.97 363.32 1296 364.153C1294.03 364.986 1291.91 365.416 1289.77 365.416C1287.63 365.416 1285.52 364.986 1283.55 364.153C1281.58 363.32 1279.79 362.099 1278.3 360.564C1276.81 359.029 1275.65 357.211 1274.87 355.217C1274.1 353.224 1273.74 351.095 1273.8 348.958V344.003H1280.85C1282.74 344.002 1284.56 343.311 1285.98 342.061C1287.39 340.81 1288.3 339.085 1288.53 337.212L1292.56 304.751C1292.7 303.662 1292.6 302.557 1292.27 301.509C1291.95 300.461 1291.4 299.494 1290.68 298.672C1289.95 297.851 1289.05 297.193 1288.05 296.743C1287.05 296.294 1285.97 296.062 1284.87 296.064H1281.96C1281.73 296.043 1281.51 296.068 1281.3 296.138C1281.09 296.208 1280.89 296.322 1280.73 296.471C1280.56 296.621 1280.43 296.804 1280.34 297.007C1280.25 297.211 1280.2 297.431 1280.2 297.654C1280.2 297.877 1280.25 298.097 1280.34 298.3C1280.43 298.504 1280.56 298.687 1280.73 298.836C1280.89 298.986 1281.09 299.1 1281.3 299.17C1281.51 299.24 1281.73 299.265 1281.96 299.243H1284.87C1285.51 299.237 1286.16 299.37 1286.75 299.634C1287.34 299.898 1287.86 300.286 1288.29 300.773C1288.71 301.259 1289.03 301.832 1289.21 302.451C1289.39 303.071 1289.44 303.723 1289.35 304.363L1285.42 336.824C1285.28 337.918 1284.75 338.925 1283.93 339.657C1283.11 340.39 1282.04 340.799 1280.94 340.809H1263.57C1262.47 340.799 1261.41 340.39 1260.58 339.657C1259.76 338.925 1259.23 337.918 1259.09 336.824L1255.06 304.363C1254.96 303.723 1255.01 303.071 1255.19 302.451C1255.38 301.832 1255.69 301.259 1256.12 300.773C1256.54 300.286 1257.07 299.898 1257.66 299.634C1258.25 299.37 1258.89 299.237 1259.54 299.243H1263.66C1263.88 299.265 1264.11 299.24 1264.32 299.17C1264.53 299.1 1264.72 298.986 1264.89 298.836C1265.05 298.687 1265.19 298.504 1265.28 298.3C1265.37 298.097 1265.41 297.877 1265.41 297.654C1265.41 297.431 1265.37 297.211 1265.28 297.007C1265.19 296.804 1265.05 296.621 1264.89 296.471C1264.72 296.322 1264.53 296.208 1264.32 296.138C1264.11 296.068 1263.88 296.043 1263.66 296.064H1259.54C1258.44 296.066 1257.36 296.299 1256.36 296.749C1255.36 297.2 1254.47 297.856 1253.74 298.676C1253.01 299.495 1252.47 300.461 1252.14 301.509C1251.82 302.557 1251.72 303.663 1251.86 304.751L1255.89 337.212C1256.12 339.085 1257.03 340.81 1258.44 342.061C1259.86 343.311 1261.68 344.002 1263.57 344.003H1270.6V348.958C1270.6 354.036 1272.62 358.907 1276.22 362.498C1279.81 366.089 1284.68 368.106 1289.77 368.106C1294.85 368.106 1299.72 366.089 1303.32 362.498C1306.91 358.907 1308.93 354.036 1308.93 348.958V336.794C1310.53 336.437 1311.96 335.545 1312.99 334.264C1314.02 332.983 1314.58 331.391 1314.57 329.75Z" fill="white"/>
</svg>
