<svg width="503" height="343" viewBox="0 0 503 343" fill="none" xmlns="http://www.w3.org/2000/svg">
<g style="mix-blend-mode:overlay">
<path d="M228.743 236.021L275.042 262.707V316.063L228.743 342.748L182.444 316.063V262.707L228.743 236.021ZM273.414 263.617L228.743 237.842L184.072 263.617V315.152L228.743 340.928L273.414 315.152V263.617Z" fill="#666666"/>
<path d="M137.877 236.021L184.177 262.707V316.063L137.877 342.748L91.5781 316.063V262.707L137.877 236.021ZM182.549 263.617L137.877 237.842L93.221 263.617V315.152L137.877 340.928L182.549 315.152V263.617Z" fill="#666666"/>
<path d="M46.9667 236.021L93.2659 262.707V316.063L46.9667 342.748L0.66748 316.063V262.707L46.9667 236.021ZM91.6379 263.617L46.9667 237.842L2.31036 263.617V315.152L46.9667 340.928L91.6379 315.152V263.617Z" fill="#666666"/>
<path d="M456.057 157.352L502.357 184.038V237.394L456.057 264.08L409.758 237.394V184.038L456.057 157.352ZM500.729 184.948L456.057 159.173L411.401 184.948V236.543L456.057 262.304L500.729 236.543V184.948Z" fill="#666666"/>
<path d="M365.147 157.352L411.446 184.038V237.394L365.147 264.08L318.848 237.394V184.038L365.147 157.352ZM409.818 184.948L365.147 159.173L320.491 184.948V236.543L365.147 262.304L409.818 236.543V184.948Z" fill="#666666"/>
<path d="M274.251 157.352L320.55 184.038V237.394L274.251 264.08L227.952 237.394V184.038L274.251 157.352ZM318.907 184.948L274.251 159.173L229.58 184.948V236.543L274.251 262.304L318.907 236.543V184.948Z" fill="#666666"/>
<path d="M183.34 157.352L229.639 184.038V237.394L183.34 264.08L137.041 237.394V184.038L183.34 157.352ZM227.997 184.948L183.34 159.173L138.669 184.948V236.543L183.34 262.304L227.997 236.543V184.948Z" fill="#666666"/>
<path d="M92.4296 157.352L138.729 184.038V237.394L92.4296 264.08L46.1304 237.394V184.038L92.4296 157.352ZM137.086 184.948L92.4296 159.173L47.7583 184.948V236.543L92.4296 262.304L137.086 236.543V184.948Z" fill="#666666"/>
<path d="M410.609 78.6836L456.908 105.354V158.71L410.609 185.396L364.31 158.71V105.354L410.609 78.6836ZM455.266 106.265L410.609 80.5044L365.938 106.265V157.8L410.609 183.575L455.266 157.8V106.265Z" fill="#666666"/>
<path d="M319.699 78.6836L365.998 105.354V158.71L319.699 185.396L273.399 158.71V105.354L319.699 78.6836ZM364.37 106.265L319.699 80.5044L275.042 106.265V157.8L319.714 183.575L364.385 157.8L364.37 106.265Z" fill="#666666"/>
<path d="M137.877 78.6836L184.177 105.354V158.71L137.877 185.396L91.5781 158.71V105.354L137.877 78.6836ZM182.549 106.265L137.877 80.5044L93.221 106.265V157.8L137.877 183.575L182.549 157.8V106.265Z" fill="#666666"/>
<path d="M365.147 0L411.446 26.6856V80.0418L365.147 106.698L318.848 80.0119V26.6856L365.147 0ZM409.818 27.596L365.147 1.82083L320.491 27.596V79.1314L365.147 104.907L409.818 79.1314V27.596Z" fill="#666666"/>
</g>
</svg>
