<svg width="1440" height="367" viewBox="0 0 1440 367" fill="none" xmlns="http://www.w3.org/2000/svg">
<path d="M1346.1 327.54V255.766L1282.99 219.35V146.457L1219.85 110.085V37.2519L1155.63 0.193604L1091.41 37.237V110.07L1028.3 146.457V219.29L965.18 255.706V327.793H-32.834V330.032H965.359L1029.4 366.971L1092.52 330.554L1155.63 366.971L1218.76 330.554L1281.88 366.971L1346.1 329.928V329.719H1440V327.599L1346.1 327.54ZM1093.61 38.5205L1155.63 2.70097L1217.66 38.5205V110.085L1198.63 121.085L1155.63 145.875L1109.19 119.07L1093.62 110.115L1093.61 38.5205ZM1091.43 328.54L1029.4 364.359L967.375 328.54V257.035L1029.4 221.215L1064.54 241.498L1091.43 257.005V328.54ZM1061.56 237.185L1030.55 219.275V147.636L1092.58 111.816L1127.88 132.189L1154.6 147.591V219.23L1127.88 234.648L1092.58 255.02L1061.56 237.185ZM1217.66 328.54L1155.63 364.359L1093.61 328.54V257.035L1109.17 248.08L1155.63 221.215L1198.63 246.02L1217.66 257.005V328.54ZM1187.79 237.185L1156.78 219.275V147.636L1187.79 129.726L1218.81 111.816L1280.84 147.636V219.275L1249.82 237.185L1218.81 255.095L1187.79 237.185ZM1343.91 328.54L1281.88 364.359L1219.85 328.54V257.035L1246.74 241.528L1281.9 221.245L1343.92 257.065L1343.91 328.54Z" fill="white"/>
</svg>
